<?xml version="1.0" encoding="UTF-8"?><svg xmlns="http://www.w3.org/2000/svg" xmlns:xlink="http://www.w3.org/1999/xlink" viewBox="0 0 830.85 504.2"><defs><style>.cls-1{fill:url(#linear-gradient-2);}.cls-1,.cls-2,.cls-3,.cls-4{stroke:#223c77;stroke-miterlimit:10;stroke-width:3px;}.cls-2{fill:url(#radial-gradient);}.cls-3{fill:url(#linear-gradient-3);}.cls-4{fill:url(#linear-gradient);}</style><radialGradient id="radial-gradient" cx="512.82" cy="68.26" fx="512.82" fy="68.26" r="493.94" gradientUnits="userSpaceOnUse"><stop offset="0" stop-color="aqua"/><stop offset=".04" stop-color="#01f3f7"/><stop offset=".7" stop-color="#172a72"/></radialGradient><linearGradient id="linear-gradient" x1="703.36" y1="330.43" x2="753.6" y2="301.43" gradientUnits="userSpaceOnUse"><stop offset="0" stop-color="#172a72"/><stop offset=".1" stop-color="#162f75"/><stop offset=".22" stop-color="#144080"/><stop offset=".37" stop-color="#115a92"/><stop offset=".52" stop-color="#0d80ab"/><stop offset=".69" stop-color="#08b0cb"/><stop offset=".86" stop-color="#02ebf2"/></linearGradient><linearGradient id="linear-gradient-2" x1="52.13" y1="202.27" x2="146.83" y2="147.59" gradientUnits="userSpaceOnUse"><stop offset="0" stop-color="#172a72"/><stop offset=".11" stop-color="#162f75"/><stop offset=".26" stop-color="#144080"/><stop offset=".43" stop-color="#115a92"/><stop offset=".61" stop-color="#0d80ab"/><stop offset=".8" stop-color="#08b0cb"/><stop offset="1" stop-color="#02ebf2"/></linearGradient><linearGradient id="linear-gradient-3" x1="74.69" y1="401.54" x2="831.08" y2="89.68" gradientUnits="userSpaceOnUse"><stop offset=".09" stop-color="#2aaeff"/><stop offset=".27" stop-color="#51c0ff"/><stop offset=".5" stop-color="#80d7ff"/><stop offset=".71" stop-color="#a2e7ff"/><stop offset=".89" stop-color="#b7f1ff"/><stop offset="1" stop-color="#bff5ff"/></linearGradient></defs><g id="Layer_1"><circle class="cls-2" cx="422.48" cy="252.1" r="250.6"/></g><g id="Layer_3"><circle class="cls-4" cx="728.48" cy="315.93" r="29"/><circle class="cls-1" cx="99.48" cy="174.93" r="54.67"/></g><g id="Layer_2"><path class="cls-3" d="M828.44,144.3c-9.13-32.28-83.19-40.83-193.34-28.44,3.04,4.65,5.92,9.41,8.65,14.27,70.78-4.31,115.61,3.98,122.1,26.91,12.47,44.06-131.21,123.29-320.92,176.96-189.71,53.67-353.6,61.45-366.06,17.39-6.53-23.09,27.94-55.85,91.32-89.51-.12-3.24-.19-6.5-.19-9.77s.08-6.52,.21-9.76C59.27,292.08-7.24,343.82,2.43,377.98c14.99,52.98,212.05,43.62,440.15-20.91s400.86-159.79,385.87-212.77Z"/></g></svg>